<?xml version="1.0" encoding="utf-8"?>
<!-- Generator: Adobe Illustrator 26.2.1, SVG Export Plug-In . SVG Version: 6.00 Build 0)  -->
<svg version="1.1" id="Layer_1" xmlns="http://www.w3.org/2000/svg" xmlns:xlink="http://www.w3.org/1999/xlink" x="0px" y="0px"
	 viewBox="0 0 264.8 74.8" style="enable-background:new 0 0 264.8 74.8;" xml:space="preserve">
<style type="text/css">
	.st0{fill:#FFFFFF;}
	.st1{fill:url(#SVGID_1_);}
	.st2{opacity:0.72;fill:#FFFFFF;enable-background:new    ;}
</style>
<g>
	<path class="st0" d="M94.8,45c2.2,1.7,6.7,3.8,10.4,3.8c4.5,0,6-1.8,6-3.8c0-3-3.4-3.7-7.2-4.4c-3.8-0.7-12-1.9-12-9.6
		c0-7.4,6.7-9.4,12-9.4c5.3,0,8.6,1.6,11.8,4.1l-3.3,4.6c-2.7-1.9-5.8-3-9.1-3c-2.4,0-5.3,0.7-5.3,3.2c0,2.9,4,3.7,7.3,4.4
		c3.8,0.8,11.9,1.4,11.9,9.9c0,6.5-4.9,9.7-12,9.7c-6.6,0-10.2-2.3-13.5-4.8L94.8,45z"/>
	<path class="st0" d="M138.3,27.2c-5.7,0-10.3,4.9-10.3,10.8c0,6,4.6,10.8,10.3,10.8c1.8,0,3.5-0.4,5-1.3c1.5-0.9,2.8-2.2,3.6-3.7
		l5.6,2.3c-2.3,4.9-7.5,8.3-14.3,8.3c-4.3-0.1-8.4-1.8-11.4-4.9c-3-3.1-4.7-7.2-4.7-11.5s1.7-8.4,4.7-11.5c3-3.1,7.1-4.8,11.4-4.9
		c7,0,12,3.8,14.3,8.4l-5.6,2.3c-0.9-1.5-2.1-2.8-3.6-3.7C141.8,27.7,140,27.2,138.3,27.2L138.3,27.2z"/>
	<path class="st0" d="M153.9,53.8l16.1-31.7h0.6l16.1,31.7h-6.6l-2.5-5h-14.9l-2.4,5H153.9z M165.9,43.6h9l-4.5-9.6L165.9,43.6z"/>
	<path class="st0" d="M213.5,48.4v5.4h-22.7V22.1h6v26.3H213.5L213.5,48.4z"/>
	<path class="st0" d="M225.1,53.8h-6V22.1h6L225.1,53.8L225.1,53.8z"/>
	<path class="st0" d="M232.1,38c0-9,6.5-16.4,16.3-16.4c9.9,0,16.4,7.4,16.4,16.4c0,9-6.5,16.4-16.4,16.4
		C238.5,54.4,232.1,47.1,232.1,38z M238.1,38c0,5.8,4.7,10.8,10.3,10.8c5.7,0,10.3-5.1,10.3-10.8c0-5.8-4.6-10.8-10.3-10.8
		C242.7,27.2,238.1,32.3,238.1,38z"/>
</g>
<g>
	<linearGradient id="SVGID_1_" gradientUnits="userSpaceOnUse" x1="63.0189" y1="77.4182" x2="16.8045" y2="-2.6275">
		<stop  offset="0" style="stop-color:#231F20;stop-opacity:0.5"/>
		<stop  offset="0.48" style="stop-color:#231F20;stop-opacity:0.7731"/>
		<stop  offset="0.5272" style="stop-color:#231F20;stop-opacity:0.8"/>
		<stop  offset="1" style="stop-color:#231F20;stop-opacity:0.5"/>
	</linearGradient>
	<path class="st1" d="M17.1,0h45.6c9.4,0,17.1,7.2,17.1,16v42.7c0,8.9-7.7,16-17.1,16H17.1C7.7,74.8,0,67.6,0,58.8V16
		C0,7.2,7.7,0,17.1,0z"/>
</g>
<path class="st2" d="M66.7,54L43.7,16.6L20.6,54H66.7z"/>
<path class="st0" d="M51,54L31.8,23L12.7,54H51z"/>
</svg>
